<?xml version="1.0" encoding="UTF-8"?>
<svg id="Layer_1" xmlns="http://www.w3.org/2000/svg" version="1.1" viewBox="0 0 632.26 226.81">
  <!-- Generator: Adobe Illustrator 30.2.1, SVG Export Plug-In . SVG Version: 2.1.1 Build 1)  -->
  <defs>
    <style>
      .st0 {
        fill: #fff;
      }
    </style>
  </defs>
  <g>
    <path class="st0" d="M67.88,69.98h.18c8.48,0,15.78,2.75,21.91,8.25,1.92,1.87,3.19,3.31,3.79,4.3.54.7.87,1.23.99,1.58l-6.31,3.25c-1.68-2.69-4.15-5.06-7.39-7.11-3.97-2.22-8.33-3.34-13.07-3.34-6.61,0-12.05,1.7-16.32,5.09-1.68,1.52-2.67,2.61-2.98,3.25-1.74,2.52-2.61,5.09-2.61,7.73v.61c0,3.75,1.83,6.7,5.5,8.87,1.86,1.17,4.57,2.34,8.11,3.51,4.57,1.41,10.49,2.78,17.76,4.13,2.82.76,5.14,1.58,6.94,2.46,1.5.7,3.06,1.67,4.69,2.9,1.5,1.23,2.7,2.4,3.61,3.51,2.94,3.81,4.42,7.99,4.42,12.56,0,5.21-1.83,10.04-5.5,14.49-1.5,1.64-2.65,2.72-3.43,3.25-2.04,1.46-3.79,2.52-5.23,3.16-4.93,2.28-10.16,3.42-15.69,3.42-7.51,0-14.31-2.05-20.38-6.15-1.08-.76-2.56-2.02-4.42-3.78l-1.17-1.23c-1.74-2.11-3.01-3.86-3.79-5.27-.36-.58-.66-1.14-.9-1.67,2.22-1.17,4.33-2.2,6.31-3.07,3.12,5.91,7.78,10.04,13.97,12.38,3.43,1.23,6.88,1.84,10.37,1.84,5.47,0,10.46-1.35,14.97-4.04,3.12-1.93,5.38-4.65,6.76-8.17.66-1.7.99-3.34.99-4.92v-.53c0-3.57-1.47-6.79-4.42-9.66-2.22-1.87-4.81-3.28-7.75-4.21-1.32-.35-4.3-.97-8.93-1.84-8.9-1.99-15.15-3.98-18.75-5.97-7.45-3.63-11.18-9.07-11.18-16.33,0-5.33,1.98-10.16,5.95-14.49,1.62-1.64,2.89-2.72,3.79-3.25,5.35-3.69,11.75-5.53,19.2-5.53Z"/>
    <path class="st0" d="M151.6,71.56h.54c11.84,0,22.03,5.09,30.56,15.28,6.01,8.2,9.02,16.95,9.02,26.26v1.32c0,11.3-4.21,21.37-12.62,30.21-7.87,7.55-17.04,11.33-27.5,11.33-11.96,0-22.27-5.27-30.92-15.81l-1.53-2.37h-.09v54.8l-.27.26h-6.49l-.27-.26v-118.81l.27-.26h6.49l.27.26v15.98h.09c4.75-7.61,11.66-13.03,20.74-16.25,3.73-1.29,7.63-1.93,11.72-1.93ZM119.05,113.71c0,11.53,4.6,21.16,13.79,28.89,6.01,4.33,12.35,6.5,19.02,6.5,9.14,0,17.1-3.75,23.89-11.24,5.95-6.97,8.93-15.02,8.93-24.15s-3.1-17.39-9.29-24.59c-6.73-7.14-14.61-10.71-23.62-10.71-10.22,0-18.93,4.68-26.15,14.05-4.39,6.62-6.58,13.7-6.58,21.25Z"/>
    <path class="st0" d="M242.18,71.56h.45c12.08,0,22.39,5.36,30.92,16.07l1.17,1.84h.09v-16.86l.27-.26h6.49l.18.26v81.31l-.18.26h-6.49l-.27-.26v-16.86h-.09c-4.69,7.44-11.6,12.79-20.74,16.07-3.79,1.23-7.72,1.84-11.81,1.84-11.84,0-22.03-5.15-30.56-15.46-5.77-7.9-8.66-16.6-8.66-26.08v-.35c0-11.47,4.09-21.51,12.26-30.12,7.93-7.61,16.92-11.42,26.96-11.42ZM209.9,113.19c0,11.48,4.57,21.02,13.7,28.63,5.89,4.27,12.14,6.41,18.75,6.41,9.02,0,16.89-3.69,23.62-11.06,5.89-6.91,8.84-14.9,8.84-23.97s-3.07-17.15-9.2-24.24c-6.67-7.08-14.46-10.63-23.35-10.63-10.1,0-18.72,4.63-25.88,13.88-4.33,6.62-6.49,13.61-6.49,20.99Z"/>
    <path class="st0" d="M335.77,70.95c5.71,0,10.58,1.29,14.61,3.86-1.02,5.33-1.62,7.99-1.8,7.99-4.75-2.75-9.26-4.13-13.52-4.13h-.72c-5.47,0-10.73,1.67-15.78,5.01-2.89,2.52-4.63,4.57-5.23,6.15-2.1,3.86-3.16,7.76-3.16,11.68v53.21l-.27.26h-6.58l-.27-.26v-81.84l.27-.18h6.58l.27.18v9.31h.09c0-.29,1.32-1.58,3.97-3.86,6.13-4.92,13.31-7.38,21.55-7.38Z"/>
    <path class="st0" d="M386.87,69.98h.18c8.48,0,15.78,2.75,21.91,8.25,1.92,1.87,3.19,3.31,3.79,4.3.54.7.87,1.23.99,1.58l-6.31,3.25c-1.68-2.69-4.15-5.06-7.39-7.11-3.97-2.22-8.33-3.34-13.07-3.34-6.61,0-12.05,1.7-16.32,5.09-1.68,1.52-2.67,2.61-2.98,3.25-1.74,2.52-2.61,5.09-2.61,7.73v.61c0,3.75,1.83,6.7,5.5,8.87,1.86,1.17,4.57,2.34,8.11,3.51,4.57,1.41,10.49,2.78,17.76,4.13,2.82.76,5.14,1.58,6.94,2.46,1.5.7,3.06,1.67,4.69,2.9,1.5,1.23,2.71,2.4,3.61,3.51,2.94,3.81,4.42,7.99,4.42,12.56,0,5.21-1.83,10.04-5.5,14.49-1.5,1.64-2.65,2.72-3.43,3.25-2.04,1.46-3.79,2.52-5.23,3.16-4.93,2.28-10.16,3.42-15.69,3.42-7.51,0-14.31-2.05-20.38-6.15-1.08-.76-2.56-2.02-4.42-3.78l-1.17-1.23c-1.74-2.11-3.01-3.86-3.79-5.27-.36-.58-.66-1.14-.9-1.67,2.22-1.17,4.33-2.2,6.31-3.07,3.12,5.91,7.78,10.04,13.97,12.38,3.43,1.23,6.88,1.84,10.37,1.84,5.47,0,10.46-1.35,14.97-4.04,3.12-1.93,5.38-4.65,6.76-8.17.66-1.7.99-3.34.99-4.92v-.53c0-3.57-1.47-6.79-4.42-9.66-2.22-1.87-4.81-3.28-7.75-4.21-1.32-.35-4.3-.97-8.93-1.84-8.9-1.99-15.15-3.98-18.75-5.97-7.45-3.63-11.18-9.07-11.18-16.33,0-5.33,1.98-10.16,5.95-14.49,1.62-1.64,2.88-2.72,3.79-3.25,5.35-3.69,11.75-5.53,19.2-5.53Z"/>
  </g>
  <g>
    <polygon class="st0" points="518.11 125.29 530.11 113.41 518.11 101.53 506.11 113.41 518.11 125.29"/>
    <path class="st0" d="M491.22,81.62l-46.08-45.65-5.2,5.15,51.15,50.67.13-.13c1.35-1.34,2.1-3.12,2.1-5.02s-.74-3.68-2.1-5.02Z"/>
    <path class="st0" d="M545,145.2l46.08,45.63,5.2-5.15-51.15-50.65-.13.13c-1.35,1.34-2.1,3.13-2.1,5.02s.74,3.68,2.1,5.02Z"/>
    <path class="st0" d="M486.11,139.95l-46.18,45.73,5.2,5.15,51.13-50.67-.21-.21c-2.74-2.72-7.2-2.72-9.95,0Z"/>
    <path class="st0" d="M550.11,86.87l46.18-45.74-5.2-5.15-51.13,50.69.21.21c1.33,1.31,3.09,2.04,4.97,2.04s3.65-.72,4.98-2.04h0Z"/>
  </g>
</svg>